# xmcd
#
# Track frame offsets:
#	150
#	11985
#	22682
#	33467
#	46687
#	55962
#	68792
#	78422
#	89077
#	101367
#	120292
#	135365
#	148927
#	166730
#	178212
#	191742
#
# Disc length: 2774 seconds
#
# Revision: 1
# Processed by: cddbd v1.4PL0 Copyright (c) Steve Scherf et al.
# Submitted via: audiograbber 1.81.03
#
DISCID=d00ad410
DTITLE=Waylon Jennings - Legends - Disk One
DYEAR=2002
DGENRE=Country
TTITLE0=I Got You
TTITLE1=The Taker
TTITLE2=This Time
TTITLE3=Don't You Think This Outlaw Bit Done Got Out Of Hand
TTITLE4=Brown Eyed Handsome Man
TTITLE5=Just To Satisify You
TTITLE6=Theme From The Dukes Of Hazzard
TTITLE7=Only Daddy That'll Walk The Line
TTITLE8=Mason Dixie Lines
TTITLE9=I've Always Been Crazy
TTITLE10=Luckenbach, Texas
TTITLE11=Honky Tonk Woman
TTITLE12=Suspicious Minds
TTITLE13=Ladies Love Outlaws
TTITLE14=Amanda
TTITLE15=Lonesome, On'ry and Mean
EXTD=
EXTT0=
EXTT1=
EXTT2=
EXTT3=
EXTT4=
EXTT5=
EXTT6=
EXTT7=
EXTT8=
EXTT9=
EXTT10=
EXTT11=
EXTT12=
EXTT13=
EXTT14=
EXTT15=
PLAYORDER=
